HIERARCHY
ROOT SpineBase
{
  OFFSET 0.000000 0.000000 0.000000
  CHANNELS 6 Xposition Yposition Zposition Zrotation Xrotation Yrotation
  JOINT SpineMid
  {
    OFFSET 0.000000 27.155680 0.000000
    CHANNELS 3 Zrotation Xrotation Yrotation
    JOINT SpineShoulder
    {
      OFFSET -0.108412 20.201768 -0.629544
      CHANNELS 3 Zrotation Xrotation Yrotation
      JOINT Neck
      {
        OFFSET -0.059379 6.701594 -0.493335
        CHANNELS 3 Zrotation Xrotation Yrotation
        JOINT Head
        {
          OFFSET 1.416827 12.164702 0.614231
          CHANNELS 3 Zrotation Xrotation Yrotation
          End Site
          {
            OFFSET 0 0 0
          }
        }
      }
      JOINT ShoulderLeft
      {
        OFFSET -12.863453 -2.717495 -7.312053
        CHANNELS 3 Zrotation Xrotation Yrotation
        JOINT ElbowLeft
        {
          OFFSET -5.912281 -22.122802 -2.573024
          CHANNELS 3 Zrotation Xrotation Yrotation
          JOINT WristLeft
          {
            OFFSET 1.052058 -18.130832 -5.463413
            CHANNELS 3 Zrotation Xrotation Yrotation
            JOINT HandLeft
            {
              OFFSET 1.074095 -6.829492 0.017940
              CHANNELS 3 Zrotation Xrotation Yrotation
              JOINT HandTipLeft
              {
                OFFSET 0.760650 -6.354835 -0.835815
                CHANNELS 3 Zrotation Xrotation Yrotation
                End Site
                {
                  OFFSET 0 0 0
                }
              }
              JOINT ThumbLeft
              {
                OFFSET -3.384880 -0.594636 -1.637123
                CHANNELS 3 Zrotation Xrotation Yrotation
                End Site
                {
                  OFFSET 0 0 0
                }
              }
            }
          }
        }
      }
      JOINT ShoulderRight
      {
        OFFSET 11.019787 -4.211685 3.832604
        CHANNELS 3 Zrotation Xrotation Yrotation
        JOINT ElbowRight
        {
          OFFSET 0.813177 -24.697850 2.750445
          CHANNELS 3 Zrotation Xrotation Yrotation
          JOINT WristRight
          {
            OFFSET 0.316470 -21.402239 -4.012486
            CHANNELS 3 Zrotation Xrotation Yrotation
            JOINT HandRight
            {
              OFFSET 1.356204 -3.611058 0.478058
              CHANNELS 3 Zrotation Xrotation Yrotation
              JOINT HandTipRight
              {
                OFFSET 0.180430 -5.848073 -0.735752
                CHANNELS 3 Zrotation Xrotation Yrotation
                End Site
                {
                  OFFSET 0 0 0
                }
              }
              JOINT ThumbRight
              {
                OFFSET -1.964227 0.626112 -3.496424
                CHANNELS 3 Zrotation Xrotation Yrotation
                End Site
                {
                  OFFSET 0 0 0
                }
              }
            }
          }
        }
      }
    }
  }
  JOINT HipLeft
  {
    OFFSET -5.564358 0.854208 -5.180577
    CHANNELS 3 Zrotation Xrotation Yrotation
    JOINT KneeLeft
    {
      OFFSET -8.009079 -28.524904 -0.999251
      CHANNELS 3 Zrotation Xrotation Yrotation
      JOINT AnkleLeft
      {
        OFFSET -4.343300 -32.715860 8.328482
        CHANNELS 3 Zrotation Xrotation Yrotation
        JOINT FootLeft
        {
          OFFSET 3.819735 -4.930128 -5.908248
          CHANNELS 3 Zrotation Xrotation Yrotation
          End Site
          {
            OFFSET 0 0 0
          }
        }
      }
    }
  }
  JOINT HipRight
  {
    OFFSET 5.297926 0.463569 -0.788190
    CHANNELS 3 Zrotation Xrotation Yrotation
    JOINT KneeRight
    {
      OFFSET -4.132196 -28.507792 3.151549
      CHANNELS 3 Zrotation Xrotation Yrotation
      JOINT AnkleRight
      {
        OFFSET -4.536064 -34.273072 7.722724
        CHANNELS 3 Zrotation Xrotation Yrotation
        JOINT FootRight
        {
          OFFSET -5.948029 -6.733357 -1.039682
          CHANNELS 3 Zrotation Xrotation Yrotation
          End Site
          {
            OFFSET 0 0 0
          }
        }
      }
    }
  }
}
MOTION
Frames: 13
Frame Time: 0.033333
13.089589 68.199374 370.290436 -6.296273 -6.179913 -16.380891 -0.373399 -0.510743 15.798272 -0.281878 -0.016481 -0.315156 13.334208 -6.707954 1.433150 0.000000 0.000000 0.000000 18.568382 26.099140 -9.744321 120.701401 9.751859 -37.554759 -14.292620 43.364803 -9.553405 66.690799 -31.821373 143.121157 0.000000 0.000000 0.000000 0.000000 0.000000 0.000000 26.829890 26.296733 -2.802841 -162.084845 -16.576770 -51.501758 -28.774117 32.883500 -69.361612 -17.994181 5.247605 -178.107453 0.000000 0.000000 0.000000 0.000000 0.000000 0.000000 7.113991 8.979734 15.095035 -3.438541 0.553974 -0.019577 -15.869518 -37.596195 -29.771543 0.000000 0.000000 0.000000 8.061079 6.702118 15.928655 -3.882474 2.957807 -0.833534 17.856483 19.639900 -26.029490 0.000000 0.000000 0.000000
12.924987 68.258743 370.284439 -5.595813 -7.288241 -18.323586 -0.321410 -0.209010 17.760289 -0.131519 -0.061567 -0.281702 8.422867 -3.163439 1.158771 0.000000 0.000000 0.000000 15.457375 22.943015 -7.639283 115.676442 12.921540 -44.323514 -10.182523 43.243226 -5.529916 67.644283 -37.451847 138.965488 0.000000 0.000000 0.000000 0.000000 0.000000 0.000000 23.031307 24.153396 -2.220909 -160.020109 -18.761085 -49.348204 -21.215606 32.929462 -68.898334 -21.062332 3.730286 175.872944 0.000000 0.000000 0.000000 0.000000 0.000000 0.000000 6.445736 9.550032 17.120315 -3.854995 1.315306 -0.169120 -14.770418 -37.164275 -29.911536 0.000000 0.000000 0.000000 7.082841 8.210465 17.786257 -4.349908 2.757748 -0.868466 28.447719 24.216882 -38.413414 0.000000 0.000000 0.000000
12.743607 68.390189 370.249896 -4.961056 -8.262658 -20.167715 -0.488990 0.024139 19.638939 -0.056807 -0.156733 -0.264405 4.216936 0.581656 1.132654 0.000000 0.000000 0.000000 12.593441 19.430975 -5.481111 111.058833 15.823933 -49.305348 -1.831791 46.292628 -4.886204 47.826837 -30.759565 100.809843 0.000000 0.000000 0.000000 0.000000 0.000000 0.000000 19.509158 22.216187 -1.693377 -156.799849 -21.670711 -48.819534 -22.164670 33.357666 -63.043868 -16.414127 2.737776 170.732710 0.000000 0.000000 0.000000 0.000000 0.000000 0.000000 5.914222 9.986409 19.062372 -4.313577 2.078325 -0.312747 -17.968665 -40.719190 -35.779355 0.000000 0.000000 0.000000 6.253210 9.571852 19.580257 -4.933915 2.603155 -0.922726 34.189466 26.821101 -46.509742 0.000000 0.000000 0.000000
12.555031 68.549046 370.180570 -4.548949 -8.949335 -21.545531 -0.786494 0.198618 21.054143 -0.005007 -0.221015 -0.260075 1.740200 3.011481 1.251164 0.000000 0.000000 0.000000 10.060182 15.831705 -3.453371 107.696996 18.089253 -52.809433 3.377706 52.286830 -11.357082 13.737189 -28.752585 28.944835 0.000000 0.000000 0.000000 0.000000 0.000000 0.000000 16.742810 21.292093 -1.305190 -153.263028 -24.217887 -50.240356 -29.032253 32.749526 -61.177591 -14.650508 4.842060 174.067954 0.000000 0.000000 0.000000 0.000000 0.000000 0.000000 5.685884 10.217894 20.524185 -4.711765 2.758444 -0.433299 -13.199942 -35.858225 -28.509172 0.000000 0.000000 0.000000 5.873730 10.798060 20.889948 -5.660197 2.244695 -0.969262 38.673872 26.929594 -50.840575 0.000000 0.000000 0.000000
12.358249 68.742586 370.074257 -4.509995 -9.240194 -22.655382 -1.322992 0.261730 22.193600 0.067286 -0.271406 -0.281697 2.413178 3.578533 1.157118 0.000000 0.000000 0.000000 8.351874 12.457451 -1.772855 105.592157 19.546525 -55.097492 29.696158 53.399181 -4.109747 -33.928659 -2.169685 -53.312990 0.000000 0.000000 0.000000 0.000000 0.000000 0.000000 13.780962 19.633881 -0.735053 -147.940100 -27.719731 -51.787227 -32.897990 30.938844 -58.523679 -14.632995 4.796446 174.110486 0.000000 0.000000 0.000000 0.000000 0.000000 0.000000 5.943721 10.281096 21.658131 -5.104293 3.262953 -0.519736 -10.421996 -30.749742 -21.396713 0.000000 0.000000 0.000000 6.075626 11.564142 21.920761 -6.397371 2.092492 -1.039570 38.341863 27.730829 -51.494797 0.000000 0.000000 0.000000
12.248238 68.881304 369.999232 -4.933738 -9.082734 -23.439196 -1.990796 0.268952 22.983150 0.167436 -0.338428 -0.329666 6.343990 2.085777 0.829094 0.000000 0.000000 0.000000 7.594266 9.438423 -0.509038 104.600062 20.184847 -56.560310 78.060246 40.297090 105.633873 76.510665 20.132417 115.546222 0.000000 0.000000 0.000000 0.000000 0.000000 0.000000 12.102144 17.872956 -0.295966 -140.606514 -34.590758 -58.833064 -42.995800 24.554267 -51.691669 -8.915223 7.976045 162.724890 0.000000 0.000000 0.000000 0.000000 0.000000 0.000000 6.545295 10.178188 22.414286 -5.243065 3.540573 -0.567393 -8.411407 -27.970464 -19.086215 0.000000 0.000000 0.000000 6.758602 11.834475 22.607237 -6.895817 2.132053 -1.104518 34.270315 27.717328 -47.493170 0.000000 0.000000 0.000000
12.206369 68.981144 369.944123 -5.561890 -8.572808 -23.378781 -1.300146 -0.082221 22.819404 -0.235286 0.007439 -0.313938 8.994160 0.854893 0.682753 0.000000 0.000000 0.000000 6.808846 7.279917 0.367352 104.771459 19.878532 -57.540115 107.252232 39.059686 -152.381741 -65.014290 -82.380852 -61.612355 0.000000 0.000000 0.000000 0.000000 0.000000 0.000000 10.585782 16.305553 -0.021068 -136.964791 -36.511518 -58.099560 -42.808941 23.757404 -51.581917 -15.374354 4.009452 172.912832 0.000000 0.000000 0.000000 0.000000 0.000000 0.000000 7.282233 10.046871 22.254332 -5.292916 3.421121 -0.552479 -9.442099 -31.145999 -23.285651 0.000000 0.000000 0.000000 7.756708 11.552260 22.476157 -7.090337 2.254104 -1.136608 20.365068 25.949902 -34.313140 0.000000 0.000000 0.000000
12.228837 69.099460 369.831554 -5.708908 -8.399462 -22.858781 -1.227413 -0.385343 22.273552 -0.207812 0.041179 -0.320149 10.455688 1.509284 0.423774 0.000000 0.000000 0.000000 6.237235 6.546531 0.768806 106.231769 18.362742 -57.950959 109.281230 31.886333 -151.809002 -88.535088 -74.876727 -93.023890 0.000000 0.000000 0.000000 0.000000 0.000000 0.000000 9.583376 15.142666 0.075691 -135.269292 -34.759572 -50.769989 -38.499799 26.634811 -58.415488 -21.548500 -1.671345 -171.943407 0.000000 0.000000 0.000000 0.000000 0.000000 0.000000 7.465931 9.946451 21.710536 -5.254213 3.269142 -0.532909 -7.569836 -28.772069 -21.311919 0.000000 0.000000 0.000000 8.046263 11.063044 21.989581 -6.933769 2.466098 -1.130747 12.024941 21.581078 -24.635571 0.000000 0.000000 0.000000
12.307236 69.235746 369.727938 -5.735155 -8.223420 -22.226396 -1.162275 -0.526357 21.635406 -0.052649 0.119498 -0.315399 11.325949 2.250734 0.168716 0.000000 0.000000 0.000000 5.547009 5.651287 1.112759 106.543656 17.889166 -58.298246 109.693786 31.561975 -152.169878 -77.200439 -69.909096 -88.792026 0.000000 0.000000 0.000000 0.000000 0.000000 0.000000 8.629518 13.870088 0.137904 -136.084814 -27.489073 -31.701033 -24.384958 33.459978 -74.763298 -30.942836 -4.784619 -156.820759 0.000000 0.000000 0.000000 0.000000 0.000000 0.000000 7.463072 9.820011 21.076143 -5.114928 2.956175 -0.482651 -4.245791 -22.717812 -16.286533 0.000000 0.000000 0.000000 8.207342 10.657051 21.395792 -6.817970 2.460452 -1.110572 14.741740 22.564664 -27.059797 0.000000 0.000000 0.000000
12.387597 69.376356 369.572357 -5.663649 -7.971004 -21.557043 -0.914627 -0.557705 20.969605 0.156768 0.209796 -0.296896 11.246030 3.183869 -0.045898 0.000000 0.000000 0.000000 4.828898 5.142313 1.242328 106.921148 17.762186 -58.660462 107.321785 34.173095 -156.160002 -61.163183 -70.578505 -75.424993 0.000000 0.000000 0.000000 0.000000 0.000000 0.000000 7.669954 13.045406 0.176027 -137.942259 -3.227371 33.188640 10.996765 16.140531 -136.637059 -41.394444 -8.459788 -142.188781 0.000000 0.000000 0.000000 0.000000 0.000000 0.000000 7.482297 9.507985 20.448729 -5.009353 2.747733 -0.450337 -0.670649 -8.310748 -4.753303 0.000000 0.000000 0.000000 8.381043 10.246810 20.778474 -6.862703 2.257732 -1.089270 13.587381 22.661864 -26.297686 0.000000 0.000000 0.000000
12.494476 69.503449 369.400141 -5.463885 -7.635475 -20.877778 -0.655672 -0.391799 20.319743 0.291315 0.372335 -0.264533 10.887535 3.897821 -0.220776 0.000000 0.000000 0.000000 4.246715 4.854537 1.168308 108.088367 17.757628 -59.370696 97.362903 41.173343 -179.922719 32.796703 -66.218233 29.848742 0.000000 0.000000 0.000000 0.000000 0.000000 0.000000 7.083810 11.233294 0.177987 -154.983884 50.775040 138.913556 -20.302574 17.212243 163.965662 -46.630875 15.374894 -137.204528 0.000000 0.000000 0.000000 0.000000 0.000000 0.000000 7.348015 9.098643 19.842271 -4.883625 2.482429 -0.413285 0.870629 -1.550315 -1.015070 0.000000 0.000000 0.000000 8.242801 9.421976 20.234891 -6.558230 2.321172 -1.053207 28.875144 28.014679 -42.754743 0.000000 0.000000 0.000000
12.633871 69.605248 369.227736 -5.140678 -7.246164 -20.366254 -0.355934 -0.069144 19.856349 0.406757 0.516958 -0.224705 10.053432 4.333276 -0.324155 0.000000 0.000000 0.000000 3.692137 4.684367 0.965321 107.297358 18.151612 -58.605301 74.282061 37.384087 96.556548 58.774356 37.343322 148.584676 0.000000 0.000000 0.000000 0.000000 0.000000 0.000000 6.810931 9.400178 0.171682 145.138810 73.078383 -137.960690 -56.742090 42.241494 12.513446 68.087584 -36.410216 41.395195 0.000000 0.000000 0.000000 0.000000 0.000000 0.000000 7.032896 8.606967 19.438144 -4.386076 1.533153 -0.215639 1.844217 -4.791683 -6.070987 0.000000 0.000000 0.000000 7.706994 8.465952 19.894255 -5.890865 2.360901 -0.973645 43.051102 28.846956 -57.644212 0.000000 0.000000 0.000000
12.764852 69.672887 369.059161 -4.763017 -6.823882 -19.932810 -0.119549 0.296328 19.479876 0.442006 0.582852 -0.189289 9.230879 4.674175 -0.413369 0.000000 0.000000 0.000000 3.493789 4.827315 0.612679 104.857042 18.823612 -56.557615 56.924726 43.367388 40.172124 28.643375 26.207591 165.046649 0.000000 0.000000 0.000000 0.000000 0.000000 0.000000 7.119812 6.018630 0.166321 91.435293 72.565485 -81.006890 -45.587801 30.022013 22.856912 46.718641 -38.438356 14.870563 0.000000 0.000000 0.000000 0.000000 0.000000 0.000000 6.712343 8.112065 19.103616 -4.260127 1.409212 -0.191884 3.998082 -1.356492 -5.718578 0.000000 0.000000 0.000000 7.229161 7.651678 19.608003 -5.400215 2.263367 -0.900507 47.988854 27.541617 -61.690197 0.000000 0.000000 0.000000
